<?xml version="1.0" encoding="utf-8"?>
<!-- Generator: Adobe Illustrator 27.5.0, SVG Export Plug-In . SVG Version: 6.00 Build 0)  -->
<svg version="1.1" id="Capa_1" xmlns="http://www.w3.org/2000/svg" xmlns:xlink="http://www.w3.org/1999/xlink" x="0px" y="0px"
	 viewBox="0 0 2122 2122" style="enable-background:new 0 0 2122 2122;" xml:space="preserve">
<g>
	<path style="fill:#F1C666;" d="M1423.389,1851.103L1423.389,1851.103L1423.389,1851.103l119.248,70.506
		c34.772,20.558,78.267,13.241,104.646-15.234c-0.693-14.551-5.079-29.112-13.654-42.171l-90.783-138.243l-140.882,92.516
		L1423.389,1851.103z"/>
	<path style="fill:#EBA55E;" d="M1542.637,1921.609l-119.248-70.505l69.358,105.616c1.595,2.432,3.297,4.754,5.092,6.964
		c1.572,1.934,3.214,3.782,4.925,5.543c15.384,15.853,36.099,24.669,57.37,25.459c14.181,0.526,28.609-2.515,41.869-9.416
		c2.526-1.314,5.01-2.769,7.442-4.366l0,0c2.157-1.417,4.195-2.944,6.176-4.518c0.51-0.406,1.017-0.815,1.515-1.231
		c1.871-1.558,3.687-3.16,5.391-4.849c0.173-0.172,0.335-0.35,0.505-0.522c1.573-1.585,3.054-3.235,4.479-4.923
		c0.513-0.608,1.02-1.221,1.514-1.841c1.214-1.524,2.375-3.081,3.472-4.675c0.562-0.816,1.098-1.644,1.627-2.476
		c0.856-1.344,1.681-2.704,2.456-4.089c0.541-0.966,1.067-1.939,1.568-2.923c0.551-1.083,1.06-2.182,1.562-3.285
		c0.862-1.89,1.656-3.805,2.374-5.749c0.281-0.764,0.573-1.525,0.832-2.297c0.474-1.406,0.918-2.82,1.318-4.248
		c0.111-0.398,0.204-0.8,0.308-1.199c0.799-3.028,1.442-6.094,1.901-9.191c0.027-0.183,0.061-0.364,0.086-0.546
		c0.747-5.263,1.005-10.602,0.752-15.943v-0.022C1620.904,1934.849,1577.41,1942.167,1542.637,1921.609z"/>
	<path style="fill:#EBA55E;" d="M1401.964,1818.477l140.882-92.516l-12-18.274c-45.121,33.34-93.89,62.021-145.626,85.292
		L1401.964,1818.477z"/>
	<path style="fill:#F1C666;" d="M590.474,1707.687L487.69,1864.203c-8.575,13.059-12.961,27.62-13.652,42.171
		c26.378,28.475,69.873,35.793,104.644,15.234l119.248-70.506l21.426-32.626l-140.883-92.516L590.474,1707.687z"/>
	<path style="fill:#EBA55E;" d="M474.038,1906.374l-0.001,0v0.022c-0.252,5.341,0.005,10.68,0.752,15.943
		c0.025,0.183,0.059,0.363,0.086,0.546c0.46,3.098,1.104,6.163,1.901,9.191c0.106,0.399,0.198,0.802,0.308,1.199
		c0.399,1.428,0.845,2.842,1.318,4.248c0.261,0.772,0.551,1.533,0.833,2.297c0.717,1.944,1.512,3.859,2.373,5.749
		c0.502,1.103,1.011,2.202,1.562,3.285c0.5,0.984,1.027,1.957,1.568,2.923c0.776,1.385,1.599,2.745,2.456,4.089
		c0.53,0.833,1.066,1.661,1.627,2.476c1.097,1.594,2.258,3.151,3.472,4.675c0.494,0.621,1.001,1.233,1.515,1.841
		c1.425,1.688,2.905,3.338,4.478,4.923c0.171,0.173,0.332,0.351,0.505,0.522c1.704,1.689,3.52,3.291,5.391,4.849
		c0.499,0.416,1.005,0.825,1.516,1.231c1.982,1.575,4.018,3.101,6.175,4.518h0.001c2.431,1.597,4.915,3.052,7.441,4.366
		c13.262,6.901,27.69,9.942,41.871,9.416c16.545-0.614,32.753-6.084,46.378-15.943c3.891-2.817,7.574-5.993,10.993-9.516
		c1.709-1.762,3.352-3.609,4.923-5.543c1.797-2.21,3.497-4.532,5.094-6.964l69.358-105.616h-0.001l-119.248,70.506
		C543.911,1942.167,500.415,1934.849,474.038,1906.374z"/>
	<path style="fill:#EBA55E;" d="M578.474,1725.961l140.883,92.516l16.744-25.498c-51.737-23.271-100.506-51.952-145.627-85.292
		L578.474,1725.961z"/>
	<path style="fill:#ECA75F;" d="M318.784,158.011c-19.122-19.39-45.676-31.432-75.061-31.432
		c-52.294,0-95.577,38.105-103.892,88.038c19.116,19.337,45.641,31.333,74.979,31.333
		C267.081,245.95,310.441,207.91,318.784,158.011z M194.692,157.99c0-15.002,21.953-27.163,49.032-27.163
		c27.081,0,49.032,12.161,49.032,27.163c0,15.002-21.951,27.163-49.032,27.163C216.644,185.153,194.692,172.992,194.692,157.99z"/>
	<path style="fill:#E4903B;" d="M343.972,199.456c-0.509-1.567-1.1-3.096-1.68-4.629c-0.451-1.195-0.823-2.427-1.317-3.6
		c-0.896-2.129-1.944-4.172-2.972-6.227c-0.485-0.969-0.899-1.979-1.412-2.932c-1.137-2.105-2.417-4.117-3.689-6.134
		c-0.522-0.829-0.982-1.7-1.526-2.513c-1.354-2.02-2.843-3.937-4.329-5.854c-0.569-0.734-1.079-1.512-1.667-2.23
		c-1.519-1.857-3.162-3.604-4.802-5.352c-0.611-0.652-1.162-1.358-1.788-1.994c-0.001,0.007-0.004,0.013-0.005,0.02
		c-8.344,49.899-51.704,87.939-103.973,87.939c-29.339,0-55.863-11.996-74.979-31.333c-0.028-0.027-0.058-0.051-0.086-0.079
		c-0.205,1.223-0.306,2.479-0.469,3.716c-0.178,1.342-0.381,2.675-0.509,4.032c-0.302,3.21-0.492,6.452-0.492,9.742
		c0,21.839,6.638,42.127,18.008,58.957c1.895,2.805,3.922,5.513,6.071,8.118c4.298,5.208,9.086,9.996,14.294,14.294
		c11.464,9.461,25.008,16.429,39.785,20.384c15.445-29.825,35.238-57.842,59.997-82.6
		C296.974,230.637,319.778,213.538,343.972,199.456z"/>
	<path style="fill:#E4903B;" d="M785.31,327.462c-4.771-10.992-11.274-20.82-19.649-29.195
		c-65.144-65.143-216.931-18.975-339.025,103.12C304.541,523.482,258.371,675.269,323.515,740.412
		c3.805,3.805,7.933,7.194,12.306,10.247C421.933,555.671,584.376,401.973,785.31,327.462z"/>
	<ellipse style="fill:#F1C666;" cx="243.723" cy="157.99" rx="49.032" ry="27.163"/>
	<path style="fill:#F7DBA2;" d="M642.174,232.027c-13.95-74.037-219.152-124.313-379.179,65.277
		c-32.153,38.093-107.869,217.244-35.958,196.127C298.951,472.314,397.742,266.795,642.174,232.027z"/>
	<path style="fill:#ECA75F;" d="M1906.508,245.95c29.339,0,55.865-11.996,74.98-31.333c-8.315-49.934-51.599-88.038-103.893-88.038
		c-29.385,0-55.939,12.042-75.061,31.432C1810.879,207.91,1854.24,245.95,1906.508,245.95z M1877.596,130.827
		c27.079,0,49.032,12.161,49.032,27.163c0,15.002-21.953,27.163-49.032,27.163s-49.032-12.161-49.032-27.163
		C1828.564,142.989,1850.517,130.827,1877.596,130.827z"/>
	<path style="fill:#E4903B;" d="M1983.044,232.027c0-3.291-0.19-6.534-0.492-9.745c-0.126-1.354-0.331-2.684-0.508-4.023
		c-0.164-1.238-0.266-2.496-0.47-3.721c-0.027,0.028-0.058,0.051-0.085,0.079c-19.115,19.337-45.642,31.333-74.98,31.333
		c-52.268,0-95.63-38.04-103.974-87.939c-0.001-0.007-0.002-0.014-0.005-0.02c-0.626,0.636-1.176,1.342-1.788,1.994
		c-1.639,1.749-3.284,3.495-4.802,5.352c-0.587,0.718-1.099,1.496-1.667,2.23c-1.486,1.917-2.974,3.835-4.329,5.854
		c-0.544,0.813-1.004,1.684-1.526,2.513c-1.273,2.017-2.552,4.029-3.688,6.134c-0.514,0.952-0.928,1.962-1.413,2.932
		c-1.028,2.055-2.076,4.098-2.97,6.227c-0.495,1.173-0.868,2.405-1.318,3.6c-0.58,1.534-1.171,3.062-1.68,4.629
		c24.194,14.082,46.998,31.181,67.542,51.726c24.759,24.758,44.552,52.775,59.997,82.6c11.42-3.057,22.124-7.866,31.667-14.314
		C1964.603,300.517,1983.044,268.426,1983.044,232.027z"/>
	<path style="fill:#F1C666;" d="M1777.347,199.456c-0.003-0.003-0.008-0.005-0.012-0.007
		c-141.655-82.444-332.415-58.305-415.508,24.788c-25.772,25.772-42.147,58.304-49.813,94.763
		c-78.979-26.412-163.49-40.746-251.354-40.746c-87.865,0-172.375,14.335-251.354,40.746c-7.666-36.459-24.042-68.991-49.814-94.763
		c-83.093-83.093-273.854-107.232-415.509-24.788c-0.004,0.003-0.009,0.005-0.012,0.007c-24.194,14.082-46.998,31.181-67.542,51.726
		c-24.759,24.758-44.552,52.775-59.997,82.6c-72.409,139.832-47.134,320.278,33.051,400.463
		c20.899,20.899,46.237,35.638,74.505,44.568c-35.726,90.217-55.371,188.554-55.371,291.482
		c0,261.371,126.629,493.139,321.855,637.393c45.121,33.34,93.89,62.021,145.627,85.292
		c99.051,44.553,208.906,69.357,324.559,69.357c115.652,0,225.507-24.804,324.56-69.357
		c51.736-23.271,100.505-51.952,145.626-85.292c195.227-144.253,321.855-376.022,321.855-637.393
		c0-102.929-19.644-201.266-55.371-291.482c28.268-8.93,53.606-23.67,74.505-44.568c80.185-80.185,105.46-260.631,33.051-400.463
		c-15.444-29.825-35.237-57.842-59.997-82.6C1824.345,230.637,1801.541,213.538,1777.347,199.456z M227.037,493.431
		c-71.912,21.117,3.804-158.034,35.958-196.127c160.027-189.589,365.229-139.314,379.179-65.277
		C397.742,266.795,298.951,472.314,227.037,493.431z M323.515,740.412c-65.144-65.143-18.974-216.93,103.121-339.025
		c122.095-122.095,273.882-168.264,339.025-103.12c8.375,8.375,14.878,18.203,19.649,29.195
		c-200.934,74.511-363.377,228.209-449.489,423.197C331.448,747.606,327.32,744.217,323.515,740.412z M1813.175,1057.581
		c0,46.75-4.298,92.491-12.458,136.882c-19.385,8.258-39.528,16.176-60.312,23.771c-67.822,313.073-346.37,547.627-679.746,547.627
		c-333.376,0-611.925-234.555-679.746-547.627c-20.784-7.595-40.927-15.514-60.313-23.772
		c-8.157-44.391-12.457-90.132-12.457-136.882c0-415.603,336.913-752.516,752.516-752.516S1813.175,641.977,1813.175,1057.581z
		 M1797.804,740.412c-3.805,3.805-7.932,7.194-12.306,10.247c-86.111-194.987-248.554-348.686-449.489-423.197
		c4.771-10.992,11.275-20.82,19.65-29.195c65.142-65.143,216.929-18.975,339.024,103.12
		C1816.778,523.482,1862.948,675.269,1797.804,740.412z M1894.282,493.431c-71.913-21.117-170.704-226.636-415.136-261.404
		c13.951-74.037,219.152-124.313,379.179,65.277C1890.478,335.397,1966.194,514.548,1894.282,493.431z"/>
	<path style="fill:#E4903B;" d="M1355.66,298.267c-8.375,8.375-14.879,18.203-19.65,29.195
		c200.935,74.511,363.378,228.209,449.489,423.197c4.374-3.053,8.501-6.442,12.306-10.247
		c65.144-65.143,18.974-216.93-103.121-339.025C1572.589,279.292,1420.802,233.123,1355.66,298.267z"/>
	<ellipse style="fill:#F1C666;" cx="1877.596" cy="157.99" rx="49.032" ry="27.163"/>
	<path style="fill:#F7DBA2;" d="M1479.146,232.027c244.432,34.768,343.223,240.286,415.136,261.404
		c71.912,21.117-3.804-158.034-35.957-196.127C1698.297,107.715,1493.096,157.99,1479.146,232.027z"/>
	<path style="fill:#F7DBA2;" d="M1060.66,305.065c-415.603,0-752.516,336.913-752.516,752.516c0,46.75,4.3,92.491,12.457,136.882
		c19.386,8.258,39.529,16.176,60.313,23.772c-10.329-47.682-15.82-97.166-15.82-147.94c0-384.151,311.415-695.566,695.566-695.566
		c384.151,0,695.566,311.416,695.566,695.566c0,50.774-5.491,100.258-15.82,147.939c20.784-7.595,40.927-15.513,60.312-23.771
		c8.16-44.391,12.458-90.132,12.458-136.882C1813.175,641.977,1476.262,305.065,1060.66,305.065z"/>
	<path style="fill:#EBA55E;" d="M1060.66,374.728c-384.151,0-695.566,311.416-695.566,695.566c0,50.774,5.491,100.258,15.82,147.94
		c67.822,313.072,346.37,547.627,679.746,547.627c333.376,0,611.924-234.555,679.746-547.627
		c10.329-47.681,15.82-97.165,15.82-147.939C1756.226,686.143,1444.811,374.728,1060.66,374.728z M1060.66,1748.666
		c-374.654,0-678.371-303.717-678.371-678.372c0-374.654,303.717-678.371,678.371-678.371
		c374.655,0,678.372,303.717,678.372,678.371C1739.032,1444.949,1435.315,1748.666,1060.66,1748.666z"/>
	<path style="fill:#E4903B;" d="M1060.66,391.923c-374.654,0-678.371,303.717-678.371,678.371
		c0,374.655,303.717,678.372,678.371,678.372c374.655,0,678.372-303.717,678.372-678.372
		C1739.032,695.64,1435.315,391.923,1060.66,391.923z M1060.66,1710.207c-353.414,0-639.912-286.498-639.912-639.913
		s286.498-639.912,639.912-639.912c353.414,0,639.913,286.498,639.913,639.912S1414.074,1710.207,1060.66,1710.207z"/>
	<path style="fill:#C9BFA8;" d="M1060.66,430.382c-353.414,0-639.912,286.498-639.912,639.912s286.498,639.913,639.912,639.913
		c353.414,0,639.913-286.498,639.913-639.913S1414.074,430.382,1060.66,430.382z M1060.66,1682.699
		c-338.222,0-612.406-274.183-612.406-612.405c0-338.222,274.184-612.405,612.406-612.405
		c338.221,0,612.405,274.183,612.405,612.405C1673.065,1408.516,1398.881,1682.699,1060.66,1682.699z"/>
	<path style="fill:#DED2B9;" d="M1060.66,457.889c-338.222,0-612.406,274.183-612.406,612.405
		c0,338.222,274.184,612.405,612.406,612.405c338.221,0,612.405-274.183,612.405-612.405
		C1673.065,732.073,1398.881,457.889,1060.66,457.889z M1060.66,1656.755c-323.894,0-586.461-262.567-586.461-586.461
		s262.567-586.461,586.461-586.461c323.894,0,586.461,262.567,586.461,586.461S1384.553,1656.755,1060.66,1656.755z"/>
	<path style="fill:#EAE2D2;" d="M1060.66,483.833c-323.894,0-586.461,262.567-586.461,586.461s262.567,586.461,586.461,586.461
		c323.894,0,586.461-262.567,586.461-586.461S1384.553,483.833,1060.66,483.833z"/>
	<path style="fill:#EAE2D2;" d="M1111.873,1042.139c13.61-13.009,23.692-24.473,34.137-34.112c-25.45,2.071-51.63,3.23-78.36,3.403
		c-0.346,1.233-0.696,2.503-1.044,3.77C1085.321,1017.32,1101.57,1027.476,1111.873,1042.139z"/>
	<path style="fill:#F2EDE2;" d="M1475.793,836.564c-0.145-0.258-0.298-0.509-0.445-0.767
		c-65.66,43.518-176.801,118.091-190.241,133.06c-17.893,8.511-24.29,4.027-43.816,8.709c-6.009,6.224-13.648,13.953-21.719,21.678
		c170.813-27.256,294.508-97.194,303.342-180.229l-43.012,24.834L1475.793,836.564z"/>
	<path style="fill:#F2EDE2;" d="M1057.217,786.493c0,0-10.418,37.118-9.301,48.612c1.116,11.494,6.494,10.383,9.301,29.232
		c2.806-18.85,8.185-17.738,9.301-29.232C1067.635,823.611,1057.217,786.493,1057.217,786.493z"/>
	<path style="fill:#F2EDE2;" d="M1346.925,601.495l-36.427,63.092l-7.204-4.273c-2.95-1.748-5.915-3.468-8.905-5.155l-7.285-4.109
		l35.849-62.089c-71.093-35.127-156.549-59.285-248.782-61.451v66.581l-10.432-0.117c-2.05-0.037-4.111-0.037-6.161,0l-10.432,0.117
		V527.51c-92.233,2.167-177.691,26.324-248.782,61.451l35.849,62.093l-7.285,4.107c-2.988,1.684-5.955,3.405-8.905,5.153
		l-7.204,4.273l-36.426-63.092c-96.308,53.37-161.712,126.378-174.289,187.296l54.849,31.665l-4.273,7.204
		c-1.749,2.949-3.469,5.917-5.157,8.906l-4.109,7.279l-43.009-24.832c11.181,105.121,206.47,189.243,448.365,192.357
		c-4.844-17.236-9.392-31.355-10.833-46.198c-1.763-18.145,9.038-59.34,15.904-83.142c-6.352-19.51-13.958-22.824-15.904-42.861
		c11.896-33.845,21.281-154.147,21.281-154.147s12.107,126.346,21.281,154.147c-1.945,20.037-9.552,23.351-15.905,42.861
		c6.867,23.802,17.668,64.997,15.905,83.142c-1.442,14.859-6,28.996-10.849,46.258c26.731-0.173,52.911-1.332,78.36-3.403
		c3.962-3.656,7.977-7.063,12.266-10.176c14.541-10.557,54.536-22.555,77.94-28.981c13.53-14.956,12.747-22.775,28.804-34.433
		c23.856-5.158,139.621-66.241,207.846-102.928c-0.743-1.281-1.47-2.572-2.225-3.845l-4.279-7.207l54.853-31.667
		C1508.637,727.873,1443.233,654.864,1346.925,601.495z"/>
	<path style="fill:#F2EDE2;" d="M1319.688,925.137c0,0-36.361,10.255-45.571,16.943c-9.211,6.687-5.729,10.477-20.374,22.233
		c17.292-7.217,18.89-2.307,29.153-7.19C1293.16,952.242,1319.688,925.137,1319.688,925.137z"/>
	<path style="fill:#725550;" d="M1057.579,1546.615l-10.432-0.117v93.201l10.255,0.107c1.083,0.018,2.169,0.036,3.258,0.036
		c1.089,0,2.175-0.018,3.258-0.036l10.254-0.107v-93.201l-10.432,0.117C1061.69,1546.651,1059.629,1546.651,1057.579,1546.615z"/>
	<path style="fill:#725550;" d="M1057.579,593.974c2.05-0.037,4.111-0.037,6.161,0l10.432,0.117V500.89l-10.234-0.105
		c-2.183-0.037-4.375-0.037-6.558,0l-10.234,0.105v93.201L1057.579,593.974z"/>
	<path style="fill:#725550;" d="M818.024,660.314c2.95-1.748,5.917-3.468,8.905-5.153l7.285-4.107l-35.849-62.093l-10.762-18.642
		l-7.144,4.047c-3.083,1.745-6.145,3.526-9.191,5.326l-7.054,4.17l10.18,17.632l36.426,63.092L818.024,660.314z"/>
	<path style="fill:#725550;" d="M1303.295,1480.275c-2.95,1.748-5.919,3.468-8.908,5.156l-7.279,4.11l46.609,80.729l7.144-4.047
		c3.083-1.745,6.145-3.526,9.191-5.327l7.054-4.17l-46.607-80.725L1303.295,1480.275z"/>
	<path style="fill:#725550;" d="M645.523,836.566c1.688-2.99,3.408-5.957,5.157-8.906l4.273-7.204l-54.849-31.665l-25.878-14.94
		l-4.169,7.052c-1.801,3.048-3.582,6.111-5.327,9.195l-4.041,7.142l37.715,21.774l43.009,24.832L645.523,836.566z"/>
	<path style="fill:#725550;" d="M1475.796,1304.022c-1.687,2.99-3.405,5.955-5.155,8.902l-4.279,7.206l80.731,46.608l4.169-7.052
		c1.802-3.046,3.582-6.109,5.327-9.192l4.047-7.143l-80.731-46.608L1475.796,1304.022z"/>
	<path style="fill:#725550;" d="M818.024,1480.275l-7.204-4.274l-46.607,80.725l7.054,4.17c3.046,1.801,6.108,3.582,9.191,5.327
		l7.144,4.047l46.609-80.729l-7.279-4.11C823.944,1483.743,820.974,1482.023,818.024,1480.275z"/>
	<path style="fill:#725550;" d="M1294.39,655.159c2.99,1.686,5.955,3.406,8.905,5.155l7.204,4.273l36.427-63.092l10.18-17.632
		l-7.054-4.17c-3.046-1.8-6.109-3.582-9.191-5.326l-7.144-4.047l-10.762,18.642l-35.849,62.089L1294.39,655.159z"/>
	<path style="fill:#725550;" d="M645.523,1304.022l-4.109-7.279l-80.728,46.608l4.047,7.143c1.744,3.083,3.523,6.144,5.324,9.192
		l4.168,7.056l80.729-46.609l-4.273-7.204C648.931,1309.979,647.211,1307.012,645.523,1304.022z"/>
	<path style="fill:#725550;" d="M1470.641,827.664c0.755,1.273,1.482,2.564,2.225,3.845c29.822-16.036,50.576-27.418,50.576-27.418
		s-19.843,12.982-48.094,31.706c0.146,0.258,0.299,0.509,0.445,0.767l4.109,7.285l43.012-24.834l37.721-21.778l-4.047-7.144
		c-1.745-3.083-3.525-6.145-5.327-9.191l-4.169-7.052l-25.878,14.94l-54.853,31.667L1470.641,827.664z"/>
	<path style="fill:#725550;" d="M1536.981,1067.178c0.017,1.037,0.034,2.074,0.034,3.117c0,1.041-0.017,2.078-0.034,3.115
		l-0.117,10.398h93.199l0.107-10.254c0.019-1.086,0.036-2.171,0.036-3.258c0-1.09-0.018-2.175-0.036-3.26l-0.107-10.255h-93.199
		L1536.981,1067.178z"/>
	<path style="fill:#725550;" d="M584.34,1073.373c-0.018-1.025-0.035-2.05-0.035-3.078c0-1.029,0.017-2.056,0.035-3.081
		l0.118-10.434h-93.201l-0.107,10.255c-0.018,1.086-0.036,2.171-0.036,3.26c0,1.088,0.018,2.173,0.036,3.258l0.107,10.254h93.201
		L584.34,1073.373z"/>
	<path style="fill:#F1C666;" d="M1066.606,1015.2c0.349-1.267,0.698-2.537,1.044-3.77c4.849-17.262,9.407-31.398,10.849-46.258
		c1.763-18.145-9.038-59.34-15.905-83.142c6.354-19.51,13.96-22.824,15.905-42.861c-9.174-27.801-21.281-154.147-21.281-154.147
		s-9.385,120.302-21.281,154.147c1.945,20.037,9.552,23.351,15.904,42.861c-6.866,23.802-17.666,64.997-15.904,83.142
		c1.441,14.843,5.989,28.962,10.833,46.198c0.407,1.452,0.817,2.943,1.228,4.441c3.678-0.654,7.443-1.055,11.308-1.055
		C1061.778,1014.757,1064.207,1014.928,1066.606,1015.2z M1047.917,835.105c-1.117-11.494,9.301-48.612,9.301-48.612
		s10.418,37.118,9.301,48.612c-1.116,11.494-6.495,10.383-9.301,29.232C1054.411,845.488,1049.032,846.599,1047.917,835.105z"/>
	<path style="fill:#F1C666;" d="M1241.292,977.567c19.526-4.682,25.923-0.199,43.816-8.709
		c13.44-14.969,124.581-89.542,190.241-133.06c28.251-18.724,48.094-31.706,48.094-31.706s-20.754,11.382-50.576,27.418
		c-68.225,36.686-183.99,97.77-207.846,102.928c-16.057,11.658-15.274,19.477-28.804,34.433
		c-23.404,6.426-63.399,18.424-77.94,28.981c-4.289,3.114-8.303,6.52-12.266,10.176c-10.446,9.639-20.527,21.103-34.137,34.112
		c2.12,3.018,3.961,6.236,5.544,9.604c24.683-7.871,43.555-11.2,60.948-19.473c10.451-4.971,26.548-18.993,41.208-33.026
		C1227.644,991.519,1235.283,983.79,1241.292,977.567z M1274.116,942.08c9.211-6.687,45.571-16.943,45.571-16.943
		s-26.528,27.104-36.792,31.986c-10.263,4.882-11.861-0.027-29.153,7.19C1268.387,952.557,1264.905,948.767,1274.116,942.08z"/>
	<path style="fill:#ECA95F;" d="M1066.606,1015.2c-2.399-0.272-4.828-0.443-7.301-0.443c-3.865,0-7.63,0.401-11.308,1.055
		c-30.078,5.351-52.934,31.573-52.934,63.189c0,35.48,28.762,64.243,64.242,64.243c35.481,0,64.243-28.763,64.243-64.243
		c0-9.759-2.239-18.973-6.131-27.257c-1.583-3.369-3.424-6.587-5.544-9.604C1101.57,1027.476,1085.321,1017.32,1066.606,1015.2z"/>
	<path style="fill:#F1C666;" d="M1059.305,1022.772c-31.054,0-56.227,25.174-56.227,56.228c0,31.054,25.173,56.228,56.227,56.228
		c31.055,0,56.229-25.174,56.229-56.228C1115.534,1047.946,1090.36,1022.772,1059.305,1022.772z"/>
	<path style="fill:#F7DBA2;" d="M1059.305,1049.827c-16.487,0-29.854,13.366-29.854,29.854c0,16.488,13.367,29.854,29.854,29.854
		c16.488,0,29.854-13.367,29.854-29.854C1089.159,1063.193,1075.794,1049.827,1059.305,1049.827z"/>
</g>
</svg>
